<svg xmlns="http://www.w3.org/2000/svg" version="1.1" xmlns:xlink="http://www.w3.org/1999/xlink" width="512" height="512" x="0" y="0" viewBox="0 0 148.961 148.961" style="enable-background:new 0 0 512 512" xml:space="preserve" class=""><g><path d="M146.764 17.379a7.497 7.497 0 0 0-10.606.001L68.852 84.697 37.847 53.691a7.5 7.5 0 0 0-10.606-.001 7.498 7.498 0 0 0-.001 10.606l36.309 36.311a7.5 7.5 0 0 0 10.608 0l72.609-72.622a7.501 7.501 0 0 0-.002-10.606z" fill="#000000" opacity="1" data-original="#000000" class=""></path><path d="M130.57 65.445a7.5 7.5 0 0 0-7.5 7.5v55.57H15V20.445h85.57c4.143 0 7.5-3.357 7.5-7.5a7.5 7.5 0 0 0-7.5-7.5H7.5a7.5 7.5 0 0 0-7.5 7.5v123.07a7.5 7.5 0 0 0 7.5 7.5h123.07c4.143 0 7.5-3.357 7.5-7.5v-63.07a7.5 7.5 0 0 0-7.5-7.5z" fill="#000000" opacity="1" data-original="#000000" class=""></path></g></svg>